<svg width="192" height="29" viewBox="0 0 192 29" fill="none" xmlns="http://www.w3.org/2000/svg">
<path d="M0.324 23V3.4H4.86V19.304H14.688V23H0.324ZM17.2498 23V3.4H25.7338C27.4884 3.4 29.0004 3.68933 30.2698 4.268C31.5391 4.828 32.5191 5.64 33.2098 6.704C33.9004 7.768 34.2458 9.03733 34.2458 10.512C34.2458 11.968 33.9004 13.228 33.2098 14.292C32.5191 15.356 31.5391 16.1773 30.2698 16.756C29.0004 17.316 27.4884 17.596 25.7338 17.596H19.7698L21.7858 15.552V23H17.2498ZM21.7858 16.056L19.7698 13.9H25.4818C26.8818 13.9 27.9271 13.6013 28.6178 13.004C29.3084 12.4067 29.6538 11.576 29.6538 10.512C29.6538 9.42933 29.3084 8.58933 28.6178 7.992C27.9271 7.39467 26.8818 7.096 25.4818 7.096H19.7698L21.7858 4.94V16.056ZM37.4842 23V3.4H42.0202V19.304H51.8482V23H37.4842ZM71.7196 23.336C70.2076 23.336 68.7983 23.0933 67.4916 22.608C66.2036 22.104 65.0836 21.3947 64.1316 20.48C63.1796 19.5653 62.433 18.492 61.8916 17.26C61.369 16.028 61.1076 14.6747 61.1076 13.2C61.1076 11.7253 61.369 10.372 61.8916 9.14C62.433 7.908 63.1796 6.83467 64.1316 5.92C65.1023 5.00533 66.2316 4.30533 67.5196 3.82C68.8076 3.316 70.217 3.064 71.7476 3.064C73.4463 3.064 74.977 3.36267 76.3396 3.96C77.721 4.53867 78.8783 5.39733 79.8116 6.536L76.8996 9.224C76.2276 8.45867 75.481 7.88933 74.6596 7.516C73.8383 7.124 72.9423 6.928 71.9716 6.928C71.057 6.928 70.217 7.07733 69.4516 7.376C68.6863 7.67467 68.0236 8.104 67.4636 8.664C66.9036 9.224 66.465 9.88667 66.1476 10.652C65.849 11.4173 65.6996 12.2667 65.6996 13.2C65.6996 14.1333 65.849 14.9827 66.1476 15.748C66.465 16.5133 66.9036 17.176 67.4636 17.736C68.0236 18.296 68.6863 18.7253 69.4516 19.024C70.217 19.3227 71.057 19.472 71.9716 19.472C72.9423 19.472 73.8383 19.2853 74.6596 18.912C75.481 18.52 76.2276 17.932 76.8996 17.148L79.8116 19.836C78.8783 20.9747 77.721 21.8427 76.3396 22.44C74.977 23.0373 73.437 23.336 71.7196 23.336ZM91.7248 23V20.06L91.4448 19.416V14.152C91.4448 13.2187 91.1554 12.4907 90.5768 11.968C90.0168 11.4453 89.1488 11.184 87.9728 11.184C87.1701 11.184 86.3768 11.3147 85.5928 11.576C84.8274 11.8187 84.1741 12.1547 83.6328 12.584L82.0648 9.532C82.8861 8.95333 83.8754 8.50533 85.0328 8.188C86.1901 7.87067 87.3661 7.712 88.5608 7.712C90.8568 7.712 92.6394 8.25333 93.9088 9.336C95.1781 10.4187 95.8128 12.108 95.8128 14.404V23H91.7248ZM87.1328 23.224C85.9568 23.224 84.9488 23.028 84.1088 22.636C83.2688 22.2253 82.6248 21.6747 82.1768 20.984C81.7288 20.2933 81.5048 19.5187 81.5048 18.66C81.5048 17.764 81.7194 16.98 82.1488 16.308C82.5968 15.636 83.2968 15.1133 84.2488 14.74C85.2008 14.348 86.4421 14.152 87.9728 14.152H91.9768V16.7H88.4488C87.4221 16.7 86.7128 16.868 86.3208 17.204C85.9474 17.54 85.7608 17.96 85.7608 18.464C85.7608 19.024 85.9754 19.472 86.4048 19.808C86.8528 20.1253 87.4594 20.284 88.2248 20.284C88.9528 20.284 89.6061 20.116 90.1848 19.78C90.7634 19.4253 91.1834 18.912 91.4448 18.24L92.1168 20.256C91.7994 21.2267 91.2208 21.964 90.3808 22.468C89.5408 22.972 88.4581 23.224 87.1328 23.224ZM119.058 7.712C120.253 7.712 121.307 7.95467 122.222 8.44C123.155 8.90667 123.883 9.63467 124.406 10.624C124.947 11.5947 125.218 12.8453 125.218 14.376V23H120.85V15.048C120.85 13.8347 120.598 12.9387 120.094 12.36C119.59 11.7813 118.881 11.492 117.966 11.492C117.331 11.492 116.762 11.6413 116.258 11.94C115.754 12.22 115.362 12.6493 115.082 13.228C114.802 13.8067 114.662 14.544 114.662 15.44V23H110.294V15.048C110.294 13.8347 110.042 12.9387 109.538 12.36C109.053 11.7813 108.353 11.492 107.438 11.492C106.803 11.492 106.234 11.6413 105.73 11.94C105.226 12.22 104.834 12.6493 104.554 13.228C104.274 13.8067 104.134 14.544 104.134 15.44V23H99.766V7.936H103.938V12.052L103.154 10.848C103.677 9.82133 104.414 9.04667 105.366 8.524C106.337 7.98267 107.438 7.712 108.67 7.712C110.051 7.712 111.255 8.06667 112.282 8.776C113.327 9.46667 114.018 10.5307 114.354 11.968L112.814 11.548C113.318 10.372 114.121 9.43867 115.222 8.748C116.342 8.05733 117.621 7.712 119.058 7.712ZM138.037 23.224C136.768 23.224 135.657 22.944 134.705 22.384C133.753 21.824 133.007 20.9747 132.465 19.836C131.943 18.6787 131.681 17.2227 131.681 15.468C131.681 13.6947 131.933 12.2387 132.437 11.1C132.941 9.96133 133.669 9.112 134.621 8.552C135.573 7.992 136.712 7.712 138.037 7.712C139.456 7.712 140.725 8.03867 141.845 8.692C142.984 9.32667 143.88 10.2227 144.533 11.38C145.205 12.5373 145.541 13.9 145.541 15.468C145.541 17.0547 145.205 18.4267 144.533 19.584C143.88 20.7413 142.984 21.6373 141.845 22.272C140.725 22.9067 139.456 23.224 138.037 23.224ZM129.133 28.432V7.936H133.305V11.016L133.221 15.496L133.501 19.948V28.432H129.133ZM137.281 19.64C138.009 19.64 138.653 19.472 139.213 19.136C139.792 18.8 140.249 18.324 140.585 17.708C140.94 17.0733 141.117 16.3267 141.117 15.468C141.117 14.5907 140.94 13.844 140.585 13.228C140.249 12.612 139.792 12.136 139.213 11.8C138.653 11.464 138.009 11.296 137.281 11.296C136.553 11.296 135.9 11.464 135.321 11.8C134.743 12.136 134.285 12.612 133.949 13.228C133.613 13.844 133.445 14.5907 133.445 15.468C133.445 16.3267 133.613 17.0733 133.949 17.708C134.285 18.324 134.743 18.8 135.321 19.136C135.9 19.472 136.553 19.64 137.281 19.64ZM148.465 23V7.936H152.833V23H148.465ZM150.649 5.836C149.847 5.836 149.193 5.60267 148.689 5.136C148.185 4.66933 147.933 4.09067 147.933 3.4C147.933 2.70933 148.185 2.13067 148.689 1.664C149.193 1.19733 149.847 0.963998 150.649 0.963998C151.452 0.963998 152.105 1.188 152.609 1.636C153.113 2.06533 153.365 2.62533 153.365 3.316C153.365 4.044 153.113 4.65067 152.609 5.136C152.124 5.60267 151.471 5.836 150.649 5.836ZM166.043 7.712C167.238 7.712 168.302 7.95467 169.235 8.44C170.187 8.90667 170.934 9.63467 171.475 10.624C172.016 11.5947 172.287 12.8453 172.287 14.376V23H167.919V15.048C167.919 13.8347 167.648 12.9387 167.107 12.36C166.584 11.7813 165.838 11.492 164.867 11.492C164.176 11.492 163.551 11.6413 162.991 11.94C162.45 12.22 162.02 12.6587 161.703 13.256C161.404 13.8533 161.255 14.6187 161.255 15.552V23H156.887V7.936H161.059V12.108L160.275 10.848C160.816 9.84 161.591 9.06533 162.599 8.524C163.607 7.98267 164.755 7.712 166.043 7.712ZM183.44 28.656C182.021 28.656 180.649 28.4787 179.324 28.124C178.017 27.788 176.925 27.2747 176.048 26.584L177.784 23.448C178.419 23.9707 179.221 24.3813 180.192 24.68C181.181 24.9973 182.152 25.156 183.104 25.156C184.653 25.156 185.773 24.8107 186.464 24.12C187.173 23.4293 187.528 22.4027 187.528 21.04V18.772L187.808 14.992L187.752 11.184V7.936H191.896V20.48C191.896 23.28 191.168 25.3427 189.712 26.668C188.256 27.9933 186.165 28.656 183.44 28.656ZM182.768 22.272C181.368 22.272 180.099 21.9733 178.96 21.376C177.84 20.76 176.935 19.9107 176.244 18.828C175.572 17.7267 175.236 16.448 175.236 14.992C175.236 13.5173 175.572 12.2387 176.244 11.156C176.935 10.0547 177.84 9.20533 178.96 8.608C180.099 8.01067 181.368 7.712 182.768 7.712C184.037 7.712 185.157 7.97333 186.128 8.496C187.099 9 187.855 9.79333 188.396 10.876C188.937 11.94 189.208 13.312 189.208 14.992C189.208 16.6533 188.937 18.0253 188.396 19.108C187.855 20.172 187.099 20.9653 186.128 21.488C185.157 22.0107 184.037 22.272 182.768 22.272ZM183.636 18.688C184.401 18.688 185.083 18.5387 185.68 18.24C186.277 17.9227 186.744 17.484 187.08 16.924C187.416 16.364 187.584 15.72 187.584 14.992C187.584 14.2453 187.416 13.6013 187.08 13.06C186.744 12.5 186.277 12.0707 185.68 11.772C185.083 11.4547 184.401 11.296 183.636 11.296C182.871 11.296 182.189 11.4547 181.592 11.772C180.995 12.0707 180.519 12.5 180.164 13.06C179.828 13.6013 179.66 14.2453 179.66 14.992C179.66 15.72 179.828 16.364 180.164 16.924C180.519 17.484 180.995 17.9227 181.592 18.24C182.189 18.5387 182.871 18.688 183.636 18.688Z" fill="black"/>
</svg>
